<svg version="1.1" id="Layer_1" xmlns="http://www.w3.org/2000/svg" xmlns:xlink="http://www.w3.org/1999/xlink" x="0px" y="0px"
	 width="100%" viewBox="0 0 1080 1080" enable-background="new 0 0 1080 1080" xml:space="preserve">
<path fill="#FFFFFF" opacity="1.000000" stroke="none" 
	d="
M1.000005,571.000000 
	C1.000000,381.033081 1.000000,191.066162 1.000000,1.049620 
	C360.904236,1.049620 720.808533,1.049620 1081.000000,1.049620 
	C1081.000000,247.361298 1081.000000,493.722687 1080.653320,740.600342 
	C1077.615479,738.393982 1075.161987,735.374268 1072.193115,732.998840 
	C1057.174072,720.981812 1048.535767,705.030518 1042.981079,686.998962 
	C1034.475586,659.388428 1025.700684,631.860901 1017.204773,604.247375 
	C1014.014099,593.876892 1008.039062,585.409241 1000.049988,578.400879 
	C994.313477,573.368469 988.380371,568.360046 981.868164,564.452087 
	C966.591797,555.284912 951.033630,547.447388 932.147583,547.542847 
	C914.021667,547.634460 900.411377,554.232727 891.436707,569.644714 
	C882.921631,584.267578 875.045959,599.267822 867.079102,614.203430 
	C860.283691,626.942871 854.038269,639.982483 847.006836,652.586609 
	C842.871643,659.999268 837.460693,660.849548 830.301941,656.309326 
	C828.344604,655.067993 826.485535,653.625366 824.754150,652.081482 
	C814.099304,642.580322 805.777893,631.253113 802.109192,617.463623 
	C796.817566,597.573975 791.856689,577.532410 788.154968,557.299438 
	C783.238525,530.426880 768.013672,513.747314 741.598877,508.531525 
	C729.178711,506.079071 716.107178,505.993469 703.367615,506.311066 
	C684.796814,506.773987 667.371887,511.860657 651.756287,522.530579 
	C628.002686,538.761230 612.113220,560.557861 604.268433,588.218811 
	C598.141052,609.823975 585.960571,627.024841 567.716919,640.239746 
	C560.473755,645.486267 553.829407,651.687683 547.492798,658.033875 
	C526.812439,678.745239 512.161682,703.723267 498.119720,729.084595 
	C485.523010,751.835632 472.042358,773.976746 453.848297,792.821899 
	C443.153320,803.899658 432.068268,814.807556 416.249207,817.856506 
	C401.455231,820.707825 386.412628,820.476746 371.478973,818.386658 
	C367.745209,817.864136 363.924530,816.959534 360.497528,815.435364 
	C349.969208,810.752808 346.833221,801.094604 344.975464,790.852295 
	C337.076294,747.302246 333.721008,703.372742 333.939270,659.131775 
	C333.998260,647.177490 335.733185,635.709717 340.366577,624.579102 
	C348.062836,606.090698 349.428680,586.924438 342.859009,567.979736 
	C333.447693,540.840576 319.004700,516.090271 303.054993,492.400909 
	C294.436859,479.600861 281.646484,477.059998 267.169708,482.494690 
	C263.447327,483.892090 259.775665,485.505920 256.264740,487.367401 
	C250.218384,490.573212 243.977753,490.693573 237.350388,489.862305 
	C225.002502,488.313477 212.600601,487.171997 200.205643,486.029541 
	C191.867050,485.260956 185.058380,488.365997 179.205582,494.358765 
	C172.795044,500.922546 165.020935,505.648224 155.860367,506.885284 
	C142.867798,508.639832 129.802261,510.177521 116.718468,510.859558 
	C95.436844,511.968994 74.118172,512.448547 52.808952,512.905518 
	C44.854824,513.076172 39.135021,516.448975 35.099358,523.042969 
	C33.019615,526.441162 31.367123,530.129700 29.051926,533.349365 
	C23.151833,541.554321 16.983391,549.566223 10.930824,557.661743 
	C7.611657,562.101196 4.309720,566.553467 1.000005,571.000000 
z"/>
<path fill="#010101" opacity="1.000000" stroke="none" 
	d="
M1.000005,571.466125 
	C4.309720,566.553467 7.611657,562.101196 10.930824,557.661743 
	C16.983391,549.566223 23.151833,541.554321 29.051926,533.349365 
	C31.367123,530.129700 33.019615,526.441162 35.099358,523.042969 
	C39.135021,516.448975 44.854824,513.076172 52.808952,512.905518 
	C74.118172,512.448547 95.436844,511.968994 116.718468,510.859558 
	C129.802261,510.177521 142.867798,508.639832 155.860367,506.885284 
	C165.020935,505.648224 172.795044,500.922546 179.205582,494.358765 
	C185.058380,488.365997 191.867050,485.260956 200.205643,486.029541 
	C212.600601,487.171997 225.002502,488.313477 237.350388,489.862305 
	C243.977753,490.693573 250.218384,490.573212 256.264740,487.367401 
	C259.775665,485.505920 263.447327,483.892090 267.169708,482.494690 
	C281.646484,477.059998 294.436859,479.600861 303.054993,492.400909 
	C319.004700,516.090271 333.447693,540.840576 342.859009,567.979736 
	C349.428680,586.924438 348.062836,606.090698 340.366577,624.579102 
	C335.733185,635.709717 333.998260,647.177490 333.939270,659.131775 
	C333.721008,703.372742 337.076294,747.302246 344.975464,790.852295 
	C346.833221,801.094604 349.969208,810.752808 360.497528,815.435364 
	C363.924530,816.959534 367.745209,817.864136 371.478973,818.386658 
	C386.412628,820.476746 401.455231,820.707825 416.249207,817.856506 
	C432.068268,814.807556 443.153320,803.899658 453.848297,792.821899 
	C472.042358,773.976746 485.523010,751.835632 498.119720,729.084595 
	C512.161682,703.723267 526.812439,678.745239 547.492798,658.033875 
	C553.829407,651.687683 560.473755,645.486267 567.716919,640.239746 
	C585.960571,627.024841 598.141052,609.823975 604.268433,588.218811 
	C612.113220,560.557861 628.002686,538.761230 651.756287,522.530579 
	C667.371887,511.860657 684.796814,506.773987 703.367615,506.311066 
	C716.107178,505.993469 729.178711,506.079071 741.598877,508.531525 
	C768.013672,513.747314 783.238525,530.426880 788.154968,557.299438 
	C791.856689,577.532410 796.817566,597.573975 802.109192,617.463623 
	C805.777893,631.253113 814.099304,642.580322 824.754150,652.081482 
	C826.485535,653.625366 828.344604,655.067993 830.301941,656.309326 
	C837.460693,660.849548 842.871643,659.999268 847.006836,652.586609 
	C854.038269,639.982483 860.283691,626.942871 867.079102,614.203430 
	C875.045959,599.267822 882.921631,584.267578 891.436707,569.644714 
	C900.411377,554.232727 914.021667,547.634460 932.147583,547.542847 
	C951.033630,547.447388 966.591797,555.284912 981.868164,564.452087 
	C988.380371,568.360046 994.313477,573.368469 1000.049988,578.400879 
	C1008.039062,585.409241 1014.014099,593.876892 1017.204773,604.247375 
	C1025.700684,631.860901 1034.475586,659.388428 1042.981079,686.998962 
	C1048.535767,705.030518 1057.174072,720.981812 1072.193115,732.998840 
	C1075.161987,735.374268 1077.615479,738.393982 1080.653320,741.058228 
	C1081.000000,811.354248 1081.000000,881.708435 1080.704834,952.705444 
	C1078.431030,955.266907 1076.059326,956.918152 1074.541016,959.149963 
	C1067.523315,969.465149 1060.843384,980.010254 1053.813843,990.317139 
	C1051.820923,993.239014 1049.055664,995.634277 1046.644531,998.270996 
	C1045.999512,998.167114 1045.354614,998.063171 1044.709717,997.959290 
	C1044.075928,993.872559 1042.513184,989.675476 1042.983154,985.719910 
	C1044.373779,974.015381 1046.392212,962.374390 1048.500122,950.769409 
	C1050.312012,940.794250 1052.927856,930.954224 1054.427979,920.940613 
	C1054.834961,918.223450 1053.307617,914.032593 1051.206787,912.409058 
	C1048.265747,910.136230 1045.328857,912.980957 1043.398071,915.649170 
	C1039.888916,920.498962 1036.041992,925.190063 1033.188110,930.412964 
	C1022.908020,949.225952 1013.334900,968.432617 1002.755249,987.070862 
	C998.374451,994.788635 992.462402,1001.738281 986.608521,1008.483337 
	C982.715332,1012.969055 979.213806,1012.237488 977.308105,1006.677063 
	C975.449219,1001.253418 974.136536,995.439148 973.818176,989.727539 
	C972.679871,969.303833 977.207214,949.583130 983.623413,930.472473 
	C988.894409,914.773071 996.037048,899.707275 1002.078491,884.254395 
	C1002.822693,882.350769 1001.890320,879.791687 1001.734802,877.536377 
	C1000.232605,878.828979 998.644226,880.037415 997.265564,881.450562 
	C996.601807,882.130737 996.333313,883.196655 995.886230,884.088074 
	C982.666565,910.443420 973.293152,938.127075 969.543091,967.360168 
	C968.060120,978.920593 968.851257,990.899292 969.793579,1002.591858 
	C970.276306,1008.581177 973.108765,1015.078369 979.856201,1016.830322 
	C986.688110,1018.604187 991.293274,1013.367004 994.754883,1008.672119 
	C1001.246155,999.868408 1007.367981,990.698792 1012.700195,981.154358 
	C1022.424255,963.748901 1031.391113,945.921814 1040.846558,928.363647 
	C1042.550903,925.198975 1045.084595,922.480896 1047.235352,919.556702 
	C1047.797363,919.842651 1048.359497,920.128662 1048.921631,920.414612 
	C1048.145752,924.744263 1047.410400,929.081604 1046.586792,933.402161 
	C1043.538086,949.397583 1040.066284,965.327454 1037.614868,981.413208 
	C1036.798828,986.768311 1037.772339,992.757751 1039.356201,998.027832 
	C1041.461304,1005.031982 1047.276978,1006.045166 1052.378662,1000.780945 
	C1055.488525,997.572144 1058.270630,993.984558 1060.814087,990.300598 
	C1066.579712,981.949890 1072.063599,973.405029 1077.789551,965.026123 
	C1078.444702,964.067261 1079.910278,963.661987 1081.000000,963.000000 
	C1081.000000,1002.315002 1081.000000,1041.630005 1081.000000,1081.000000 
	C807.312439,1081.000000 533.624878,1081.000000 259.305908,1080.707886 
	C239.585312,1057.113159 226.051971,1030.636475 216.058716,1002.491333 
	C189.837494,928.641296 170.853745,853.247437 169.733887,774.241943 
	C169.580688,763.434387 168.745605,752.597534 167.528763,741.853271 
	C165.853333,727.059631 157.485123,714.981628 150.643570,702.252747 
	C144.686066,691.168701 137.788361,680.077881 134.727280,668.114685 
	C132.367981,658.894104 128.344269,653.918152 120.228409,650.908936 
	C118.674263,650.332764 117.145699,649.667297 115.657562,648.936646 
	C103.305626,642.872070 89.984024,638.152954 78.948425,630.245789 
	C70.832512,624.430603 65.136520,624.015686 56.635410,627.962830 
	C43.537220,634.044556 29.739449,633.561646 16.399340,627.973816 
	C6.197338,623.700378 2.907098,618.130127 4.155605,607.246643 
	C4.513881,604.123413 6.695563,601.245300 7.697100,598.143738 
	C8.147118,596.750183 8.348608,594.670288 7.623004,593.620850 
	C5.720598,590.869446 3.246353,588.513550 1.000003,586.000000 
	C1.000000,581.310730 1.000000,576.621521 1.000005,571.466125 
M816.624756,932.086182 
	C814.015198,936.909363 811.397217,941.728027 808.797546,946.556458 
	C800.288147,962.361145 792.113708,978.359802 783.110413,993.877686 
	C779.752014,999.666199 774.640808,1004.501282 769.989197,1009.452026 
	C767.204529,1012.415894 764.096436,1011.793396 762.420532,1008.047363 
	C760.941650,1004.741943 759.752686,1001.231445 758.994446,997.691833 
	C755.521606,981.480286 759.907837,965.768921 762.910461,950.129089 
	C767.258301,927.481934 775.785339,906.179016 785.968018,885.513489 
	C787.027283,883.363953 786.416809,880.391724 786.580994,877.801147 
	C784.721558,879.473389 782.187866,880.794800 781.106873,882.872131 
	C770.231567,903.769836 761.929138,925.740540 757.456177,948.826904 
	C754.927368,961.879150 746.643860,970.689758 738.752563,979.908447 
	C733.724854,985.781982 727.640869,983.939087 725.165527,976.444458 
	C723.714294,972.050049 722.853821,967.436096 722.023132,962.867126 
	C720.833740,956.325806 720.407593,949.607788 718.749573,943.199585 
	C716.874084,935.950623 710.197815,934.169556 704.319946,938.920654 
	C701.872437,940.899048 699.553101,943.125122 697.550232,945.548340 
	C690.655457,953.890076 683.954163,962.391479 677.115051,970.779785 
	C675.312256,972.991028 673.278320,975.013794 671.350525,977.123108 
	C670.780640,976.897949 670.210754,976.672791 669.640869,976.447571 
	C669.917603,972.948792 669.675842,969.312439 670.561096,965.975037 
	C674.351440,951.685242 678.674927,937.535583 682.386902,923.226685 
	C684.127808,916.515625 685.501404,909.598755 685.971252,902.702271 
	C686.376038,896.759460 681.877197,894.474121 676.540894,897.252869 
	C674.639404,898.243042 672.908386,899.604919 671.215027,900.943298 
	C659.969299,909.831055 651.231384,920.942139 643.376221,932.781677 
	C628.409058,955.340820 618.090332,980.261414 607.003967,1004.789734 
	C606.130554,1006.721985 604.994629,1008.535706 603.980713,1010.404480 
	C603.447876,1010.218750 602.915039,1010.033020 602.382202,1009.847351 
	C603.399170,1003.201782 603.678406,996.339539 605.556213,989.946899 
	C615.619934,955.687988 626.115112,921.555969 636.329773,887.340820 
	C636.992310,885.121643 637.106567,880.648743 636.541748,880.487122 
	C632.390015,879.298462 631.849548,883.199341 630.980652,885.772095 
	C627.312622,896.631958 623.806458,907.550415 620.458801,918.513916 
	C611.164307,948.953247 599.705688,978.837219 596.588745,1010.915283 
	C595.895630,1010.634888 595.199219,1010.057434 594.684082,1010.189087 
	C587.081360,1012.131897 585.238037,1006.663513 583.485901,1001.381042 
	C579.339661,988.880127 579.610168,975.916199 581.607666,963.281067 
	C585.317688,939.813354 590.147766,916.522949 594.486755,893.154175 
	C595.365784,888.420166 596.462646,883.688049 596.786621,878.909485 
	C596.908142,877.117188 595.552307,874.339172 594.068298,873.581970 
	C592.687805,872.877686 589.785706,873.695740 588.354797,874.842896 
	C584.998291,877.533936 581.654602,880.481445 579.131287,883.929382 
	C568.428467,898.553955 557.903503,913.313782 547.607788,928.227356 
	C545.239624,931.657715 542.905212,932.575806 538.943237,931.799805 
	C532.602722,930.557922 526.107971,929.032227 519.753052,929.313416 
	C515.554871,929.499146 511.190308,932.207214 507.543213,934.719421 
	C506.454559,935.469299 506.939392,939.631897 507.847961,941.736755 
	C508.407715,943.033508 511.133423,943.395325 513.372009,944.393250 
	C511.961823,940.975159 509.788116,937.798584 510.478699,936.948303 
	C511.954895,935.130615 514.839233,933.793640 517.278809,933.542480 
	C525.445190,932.702026 533.362549,934.056763 541.173584,937.649475 
	C540.153748,939.558716 539.348633,941.182556 538.441223,942.747070 
	C528.345886,960.152832 518.335754,977.609375 508.070526,994.914612 
	C504.683990,1000.623657 500.696350,1005.984314 496.833130,1011.396973 
	C495.760742,1012.899292 494.148956,1014.016663 492.643341,1015.444702 
	C489.035217,1008.491882 490.506714,1001.194214 495.892151,997.004395 
	C493.285889,993.443359 489.698761,993.464111 488.406250,997.700439 
	C486.893707,1002.658020 486.181458,1008.063599 486.332489,1013.239502 
	C486.408875,1015.857361 488.677734,1019.868530 490.822723,1020.560364 
	C492.985809,1021.258057 497.014343,1019.336365 498.832306,1017.311462 
	C503.250244,1012.390686 507.298645,1007.008606 510.714661,1001.341370 
	C522.132141,982.399902 533.147705,963.216431 544.506348,944.238831 
	C545.609558,942.395630 548.263000,939.893738 549.786133,940.148926 
	C558.889465,941.674194 567.872314,943.918701 577.380920,946.029724 
	C576.757324,951.958313 575.966736,958.049377 575.503906,964.165222 
	C574.482849,977.655884 573.963745,991.192993 578.272400,1004.260254 
	C581.855530,1015.127075 589.809937,1019.182861 596.480591,1017.513733 
	C596.603699,1018.169495 596.584473,1018.894104 596.874817,1019.459839 
	C597.781677,1021.226562 598.805603,1022.933228 599.784119,1024.663208 
	C601.485901,1023.521301 603.581116,1022.691772 604.795410,1021.162781 
	C606.526367,1018.982971 607.733215,1016.348694 608.953064,1013.807312 
	C619.017090,992.841370 628.597351,971.629089 639.202148,950.941589 
	C647.428650,934.893677 657.855774,920.189087 671.461243,908.059082 
	C673.843994,905.934753 676.658508,904.294678 679.273621,902.430908 
	C679.804993,902.742371 680.336365,903.053833 680.867737,903.365295 
	C679.763916,908.797119 678.946045,914.306335 677.500977,919.645752 
	C673.682190,933.755615 669.335022,947.726746 665.742798,961.891235 
	C664.414490,967.128845 664.023376,972.778259 664.264587,978.192688 
	C664.526550,984.073242 668.935425,985.914368 673.691956,982.408264 
	C676.458313,980.369202 678.813171,977.671814 681.026062,974.999695 
	C688.881409,965.514160 696.486450,955.818909 704.457581,946.433533 
	C706.033630,944.577759 708.812012,943.743164 711.035828,942.437622 
	C712.109741,944.746826 713.334717,947.000916 714.203430,949.384827 
	C714.763306,950.921143 714.732544,952.662537 715.083069,954.286865 
	C716.969482,963.028076 717.739746,972.235474 721.089111,980.379639 
	C725.457153,991.000854 734.499878,991.852417 742.455872,983.593384 
	C745.963684,979.951965 749.219360,976.067688 753.173401,971.639709 
	C752.900330,976.416016 752.520508,980.224060 752.497314,984.034180 
	C752.442322,993.040833 752.392029,1002.096741 757.078491,1010.265686 
	C761.823547,1018.536682 767.138000,1019.517639 774.499695,1013.340515 
	C784.686646,1004.792725 790.771790,993.236633 796.919861,981.813599 
	C806.450867,964.104919 815.667542,946.226990 825.193726,928.515747 
	C826.917542,925.310852 829.488098,922.561401 831.667725,919.601746 
	C832.129944,919.804443 832.592224,920.007141 833.054443,920.209900 
	C832.868530,922.245239 832.884888,924.323486 832.463684,926.308899 
	C829.840698,938.670898 826.856628,950.962463 824.512512,963.375610 
	C822.543640,973.801636 819.847595,984.392883 822.921021,994.970032 
	C823.880005,998.270447 826.533569,1002.471069 829.355591,1003.404175 
	C831.682739,1004.173767 836.390503,1001.496460 838.328552,999.010071 
	C845.064697,990.368164 851.079407,981.161743 857.317566,972.134766 
	C860.533325,967.481323 863.748962,962.819580 866.705017,958.002258 
	C867.275696,957.072327 866.639771,955.401917 866.560425,954.073120 
	C865.215088,954.248901 863.480957,953.963989 862.608765,954.700134 
	C860.997986,956.059875 859.786621,957.947754 858.593994,959.738892 
	C851.678284,970.126099 844.915405,980.616882 837.871033,990.915344 
	C835.983398,993.674866 833.292480,995.884949 830.970337,998.347229 
	C830.318359,998.201843 829.666382,998.056458 829.014465,997.911011 
	C828.425659,993.442078 826.918762,988.865173 827.428772,984.525330 
	C828.707520,973.643311 830.791992,962.849121 832.754761,952.056274 
	C834.746765,941.102295 837.229797,930.230042 838.895447,919.230774 
	C839.226196,917.046997 837.357117,913.161072 835.536743,912.414307 
	C833.794678,911.699707 829.989685,913.382324 828.501953,915.179199 
	C824.276245,920.282959 820.771301,925.983398 816.624756,932.086182 
M924.546509,940.814758 
	C931.062866,942.116394 937.536133,943.761169 944.112244,944.586304 
	C947.835022,945.053467 948.565796,946.126282 948.379456,949.837524 
	C947.654968,964.265137 946.814209,978.738647 947.306458,993.150940 
	C947.511047,999.141113 950.142883,1005.494202 953.224304,1010.776123 
	C955.128601,1014.040405 959.828003,1015.870178 963.591980,1017.679565 
	C964.300415,1018.020081 966.516724,1015.223755 968.037231,1013.874878 
	C966.892639,1012.604614 965.403870,1010.064758 964.658264,1010.266846 
	C959.166809,1011.755249 956.844849,1008.146851 956.010742,1004.296570 
	C954.161438,995.759827 952.073242,987.036804 952.055298,978.385620 
	C951.999084,951.227417 958.400696,924.950562 964.479004,898.671814 
	C965.864563,892.681519 967.236145,886.647034 967.912476,880.554993 
	C968.163879,878.291138 967.037720,874.729736 965.368591,873.744873 
	C963.928467,872.895142 960.416382,874.313538 958.552429,875.707886 
	C955.521118,877.975403 952.696716,880.757507 950.467773,883.819397 
	C939.802002,898.470825 929.229248,913.195312 918.946228,928.116272 
	C916.437683,931.756042 913.983582,932.561035 909.827942,931.713989 
	C903.502808,930.424866 896.991028,929.045532 890.627258,929.316956 
	C886.588989,929.489136 882.347107,932.131409 878.892090,934.628296 
	C877.752625,935.451782 878.156311,939.561707 879.058472,941.648132 
	C879.644043,943.002014 882.409363,943.413269 885.043396,944.640808 
	C883.331909,941.142273 882.317444,939.068481 881.302979,936.994751 
	C883.937439,935.769653 886.497864,933.720215 889.220459,933.475647 
	C897.069885,932.770203 904.731506,934.135803 912.419312,937.609741 
	C911.408386,939.540466 910.563782,941.310669 909.583130,943.001831 
	C901.158508,957.530457 892.827454,972.115173 884.220581,986.535278 
	C879.453003,994.522949 874.284302,1002.276123 869.133301,1010.026672 
	C867.823547,1011.997559 865.891846,1013.555115 864.146362,1015.408386 
	C860.191345,1009.223145 861.446716,1002.346375 867.081726,996.711731 
	C864.211365,993.454468 861.015930,993.472534 859.782471,997.541992 
	C858.235596,1002.645691 857.552429,1008.183716 857.605713,1013.523254 
	C857.630432,1016.003357 859.875305,1020.020569 861.833069,1020.519653 
	C864.179016,1021.117737 868.090759,1019.435486 869.915222,1017.447510 
	C874.271729,1012.700562 878.251648,1007.466187 881.582642,1001.945374 
	C893.180237,982.723999 904.496704,963.331726 915.767822,943.915955 
	C917.742981,940.513550 919.906860,938.835632 924.546509,940.814758 
M434.268341,887.762695 
	C433.443573,889.153625 432.298584,890.447693 431.844147,891.950562 
	C427.808319,905.297180 423.754822,918.641846 420.019623,932.074097 
	C418.684479,936.875488 417.351349,940.914246 411.270660,940.983887 
	C409.378143,941.005554 407.327240,941.888672 405.665741,942.898682 
	C404.246918,943.761230 403.282074,945.370605 402.116425,946.649658 
	C403.849945,947.097656 405.614075,948.003418 407.310028,947.889893 
	C410.099274,947.703186 412.844391,946.856262 416.100677,946.186340 
	C415.770386,948.255798 415.640381,949.231812 415.456635,950.197693 
	C411.760773,969.622803 407.955902,989.028381 404.476929,1008.492249 
	C403.996002,1011.182800 402.442078,1015.770325 407.090485,1016.054749 
	C408.551453,1016.144104 410.511566,1011.329163 411.842926,1008.566040 
	C412.327057,1007.561218 411.627228,1005.996460 411.500092,1004.684021 
	C411.341400,1003.045288 410.821564,1001.322815 411.137146,999.775085 
	C414.658203,982.507751 418.208282,965.244080 422.090057,948.056091 
	C422.466400,946.389587 424.989777,944.223694 426.727814,944.010254 
	C437.295227,942.712463 447.920502,941.873657 458.534607,940.978333 
	C460.961517,940.773682 463.420349,940.948242 465.976898,940.948242 
	C465.976898,942.121460 466.130737,942.970337 465.954651,943.744141 
	C459.615997,971.601196 453.208893,999.442810 446.984253,1027.325195 
	C446.647339,1028.834351 447.802856,1030.676880 448.263702,1032.364136 
	C449.685303,1031.332520 451.718079,1030.598755 452.397217,1029.205200 
	C453.687805,1026.557007 454.366302,1023.567749 455.016205,1020.656921 
	C460.666809,995.348877 466.325592,970.042053 471.786133,944.692749 
	C472.622681,940.809509 474.384644,938.975830 478.317169,938.565369 
	C482.435516,938.135559 486.540863,937.341980 490.556793,936.329895 
	C491.619171,936.062195 492.331207,934.404297 493.204071,933.384827 
	C491.960052,932.605042 490.692871,931.140320 489.476562,931.181396 
	C486.513153,931.281494 483.573212,932.079163 480.623993,932.596924 
	C475.553711,933.487000 474.565247,932.683167 476.100128,927.814636 
	C482.089111,908.818115 488.304382,889.893005 494.413086,870.934143 
	C495.266754,868.284729 498.477905,864.675354 494.922058,863.074585 
	C490.884583,861.257019 490.081879,866.148376 489.199493,868.815186 
	C482.679718,888.519226 476.160706,908.230774 470.201263,928.107849 
	C468.705902,933.095581 466.210449,934.661133 461.528259,934.964661 
	C451.227112,935.632385 440.941681,936.563049 430.659210,937.490295 
	C424.543732,938.041809 424.113251,937.747681 425.843719,931.741028 
	C429.567902,918.813782 433.465149,905.936462 437.291107,893.038513 
	C438.033081,890.537231 439.659515,887.664124 434.268341,887.762695 
M329.193207,907.689331 
	C325.327515,916.505066 320.971527,925.143616 317.707031,934.176575 
	C312.348572,949.003784 309.138733,964.226379 312.007294,980.188904 
	C315.252930,998.250122 330.138641,1008.391907 347.970612,1004.110168 
	C375.363342,997.532776 394.548157,979.395813 411.482147,958.268860 
	C412.194550,957.380066 411.874512,955.663696 412.035431,954.332825 
	C410.575775,954.481140 408.626343,954.086365 407.747681,954.878906 
	C405.040924,957.320312 402.716675,960.191895 400.290955,962.937988 
	C386.756744,978.259766 371.255951,990.739624 351.558746,997.401123 
	C334.710419,1003.099060 321.435242,996.078247 317.378387,978.898010 
	C316.657898,975.846863 316.147614,972.586365 316.395660,969.491150 
	C318.601501,941.965088 326.664185,916.633118 345.377533,895.612000 
	C354.145752,885.762512 364.598145,878.217712 377.509247,874.554199 
	C385.244141,872.359436 389.854034,874.976624 390.105896,882.973877 
	C390.267181,888.095093 389.486359,893.843201 387.194519,898.320618 
	C382.373230,907.739624 376.249451,916.489258 370.751038,925.568542 
	C370.170380,926.527405 370.195038,927.852844 369.938904,929.008179 
	C371.238831,928.743286 373.013641,928.921753 373.751282,928.131775 
	C376.127930,925.586426 378.176147,922.723938 380.254333,919.912292 
	C387.012512,910.768860 393.240631,901.289612 395.467072,889.908020 
	C397.829926,877.828857 392.972534,863.602661 374.015656,869.543213 
	C370.705811,870.580505 367.443573,871.929199 364.371674,873.539185 
	C349.526611,881.319458 338.203156,892.803345 329.193207,907.689331 
z"/>
<path fill="#FFFFFF" opacity="1.000000" stroke="none" 
	d="
M1.000003,586.468628 
	C3.246353,588.513550 5.720598,590.869446 7.623004,593.620850 
	C8.348608,594.670288 8.147118,596.750183 7.697100,598.143738 
	C6.695563,601.245300 4.513881,604.123413 4.155605,607.246643 
	C2.907098,618.130127 6.197338,623.700378 16.399340,627.973816 
	C29.739449,633.561646 43.537220,634.044556 56.635410,627.962830 
	C65.136520,624.015686 70.832512,624.430603 78.948425,630.245789 
	C89.984024,638.152954 103.305626,642.872070 115.657562,648.936646 
	C117.145699,649.667297 118.674263,650.332764 120.228409,650.908936 
	C128.344269,653.918152 132.367981,658.894104 134.727280,668.114685 
	C137.788361,680.077881 144.686066,691.168701 150.643570,702.252747 
	C157.485123,714.981628 165.853333,727.059631 167.528763,741.853271 
	C168.745605,752.597534 169.580688,763.434387 169.733887,774.241943 
	C170.853745,853.247437 189.837494,928.641296 216.058716,1002.491333 
	C226.051971,1030.636475 239.585312,1057.113159 258.837280,1080.707886 
	C173.049973,1081.000000 87.099960,1081.000000 1.000000,1081.000000 
	C1.000000,916.312439 1.000000,751.624878 1.000003,586.468628 
z"/>
<path fill="#F2F2F2" opacity="1.000000" stroke="none" 
	d="
M1081.000000,962.545898 
	C1079.910278,963.661987 1078.444702,964.067261 1077.789551,965.026123 
	C1072.063599,973.405029 1066.579712,981.949890 1060.814087,990.300598 
	C1058.270630,993.984558 1055.488525,997.572144 1052.378662,1000.780945 
	C1047.276978,1006.045166 1041.461304,1005.031982 1039.356201,998.027832 
	C1037.772339,992.757751 1036.798828,986.768311 1037.614868,981.413208 
	C1040.066284,965.327454 1043.538086,949.397583 1046.586792,933.402161 
	C1047.410400,929.081604 1048.145752,924.744263 1048.921631,920.414612 
	C1048.359497,920.128662 1047.797363,919.842651 1047.235352,919.556702 
	C1045.084595,922.480896 1042.550903,925.198975 1040.846558,928.363647 
	C1031.391113,945.921814 1022.424255,963.748901 1012.700195,981.154358 
	C1007.367981,990.698792 1001.246155,999.868408 994.754883,1008.672119 
	C991.293274,1013.367004 986.688110,1018.604187 979.856201,1016.830322 
	C973.108765,1015.078369 970.276306,1008.581177 969.793579,1002.591858 
	C968.851257,990.899292 968.060120,978.920593 969.543091,967.360168 
	C973.293152,938.127075 982.666565,910.443420 995.886230,884.088074 
	C996.333313,883.196655 996.601807,882.130737 997.265564,881.450562 
	C998.644226,880.037415 1000.232605,878.828979 1001.734802,877.536377 
	C1001.890320,879.791687 1002.822693,882.350769 1002.078491,884.254395 
	C996.037048,899.707275 988.894409,914.773071 983.623413,930.472473 
	C977.207214,949.583130 972.679871,969.303833 973.818176,989.727539 
	C974.136536,995.439148 975.449219,1001.253418 977.308105,1006.677063 
	C979.213806,1012.237488 982.715332,1012.969055 986.608521,1008.483337 
	C992.462402,1001.738281 998.374451,994.788635 1002.755249,987.070862 
	C1013.334900,968.432617 1022.908020,949.225952 1033.188110,930.412964 
	C1036.041992,925.190063 1039.888916,920.498962 1043.398071,915.649170 
	C1045.328857,912.980957 1048.265747,910.136230 1051.206787,912.409058 
	C1053.307617,914.032593 1054.834961,918.223450 1054.427979,920.940613 
	C1052.927856,930.954224 1050.312012,940.794250 1048.500122,950.769409 
	C1046.392212,962.374390 1044.373779,974.015381 1042.983154,985.719910 
	C1042.513184,989.675476 1044.075928,993.872559 1044.709717,997.959290 
	C1045.354614,998.063171 1045.999512,998.167114 1046.644531,998.270996 
	C1049.055664,995.634277 1051.820923,993.239014 1053.813843,990.317139 
	C1060.843384,980.010254 1067.523315,969.465149 1074.541016,959.149963 
	C1076.059326,956.918152 1078.431030,955.266907 1080.704834,953.174072 
	C1081.000000,956.030579 1081.000000,959.061218 1081.000000,962.545898 
z"/>
<path fill="#F4F4F4" opacity="1.000000" stroke="none" 
	d="
M816.803650,931.767578 
	C820.771301,925.983398 824.276245,920.282959 828.501953,915.179199 
	C829.989685,913.382324 833.794678,911.699707 835.536743,912.414307 
	C837.357117,913.161072 839.226196,917.046997 838.895447,919.230774 
	C837.229797,930.230042 834.746765,941.102295 832.754761,952.056274 
	C830.791992,962.849121 828.707520,973.643311 827.428772,984.525330 
	C826.918762,988.865173 828.425659,993.442078 829.014465,997.911011 
	C829.666382,998.056458 830.318359,998.201843 830.970337,998.347229 
	C833.292480,995.884949 835.983398,993.674866 837.871033,990.915344 
	C844.915405,980.616882 851.678284,970.126099 858.593994,959.738892 
	C859.786621,957.947754 860.997986,956.059875 862.608765,954.700134 
	C863.480957,953.963989 865.215088,954.248901 866.560425,954.073120 
	C866.639771,955.401917 867.275696,957.072327 866.705017,958.002258 
	C863.748962,962.819580 860.533325,967.481323 857.317566,972.134766 
	C851.079407,981.161743 845.064697,990.368164 838.328552,999.010071 
	C836.390503,1001.496460 831.682739,1004.173767 829.355591,1003.404175 
	C826.533569,1002.471069 823.880005,998.270447 822.921021,994.970032 
	C819.847595,984.392883 822.543640,973.801636 824.512512,963.375610 
	C826.856628,950.962463 829.840698,938.670898 832.463684,926.308899 
	C832.884888,924.323486 832.868530,922.245239 833.054443,920.209900 
	C832.592224,920.007141 832.129944,919.804443 831.667725,919.601746 
	C829.488098,922.561401 826.917542,925.310852 825.193726,928.515747 
	C815.667542,946.226990 806.450867,964.104919 796.919861,981.813599 
	C790.771790,993.236633 784.686646,1004.792725 774.499695,1013.340515 
	C767.138000,1019.517639 761.823547,1018.536682 757.078491,1010.265686 
	C752.392029,1002.096741 752.442322,993.040833 752.497314,984.034180 
	C752.520508,980.224060 752.900330,976.416016 753.173401,971.639709 
	C749.219360,976.067688 745.963684,979.951965 742.455872,983.593384 
	C734.499878,991.852417 725.457153,991.000854 721.089111,980.379639 
	C717.739746,972.235474 716.969482,963.028076 715.083069,954.286865 
	C714.732544,952.662537 714.763306,950.921143 714.203430,949.384827 
	C713.334717,947.000916 712.109741,944.746826 711.035828,942.437622 
	C708.812012,943.743164 706.033630,944.577759 704.457581,946.433533 
	C696.486450,955.818909 688.881409,965.514160 681.026062,974.999695 
	C678.813171,977.671814 676.458313,980.369202 673.691956,982.408264 
	C668.935425,985.914368 664.526550,984.073242 664.264587,978.192688 
	C664.023376,972.778259 664.414490,967.128845 665.742798,961.891235 
	C669.335022,947.726746 673.682190,933.755615 677.500977,919.645752 
	C678.946045,914.306335 679.763916,908.797119 680.867737,903.365295 
	C680.336365,903.053833 679.804993,902.742371 679.273621,902.430908 
	C676.658508,904.294678 673.843994,905.934753 671.461243,908.059082 
	C657.855774,920.189087 647.428650,934.893677 639.202148,950.941589 
	C628.597351,971.629089 619.017090,992.841370 608.953064,1013.807312 
	C607.733215,1016.348694 606.526367,1018.982971 604.795410,1021.162781 
	C603.581116,1022.691772 601.485901,1023.521301 599.784119,1024.663208 
	C598.805603,1022.933228 597.781677,1021.226562 596.874817,1019.459839 
	C596.584473,1018.894104 596.603699,1018.169495 596.480591,1017.513733 
	C589.809937,1019.182861 581.855530,1015.127075 578.272400,1004.260254 
	C573.963745,991.192993 574.482849,977.655884 575.503906,964.165222 
	C575.966736,958.049377 576.757324,951.958313 577.380920,946.029724 
	C567.872314,943.918701 558.889465,941.674194 549.786133,940.148926 
	C548.263000,939.893738 545.609558,942.395630 544.506348,944.238831 
	C533.147705,963.216431 522.132141,982.399902 510.714661,1001.341370 
	C507.298645,1007.008606 503.250244,1012.390686 498.832306,1017.311462 
	C497.014343,1019.336365 492.985809,1021.258057 490.822723,1020.560364 
	C488.677734,1019.868530 486.408875,1015.857361 486.332489,1013.239502 
	C486.181458,1008.063599 486.893707,1002.658020 488.406250,997.700439 
	C489.698761,993.464111 493.285889,993.443359 495.892151,997.004395 
	C490.506714,1001.194214 489.035217,1008.491882 492.643341,1015.444702 
	C494.148956,1014.016663 495.760742,1012.899292 496.833130,1011.396973 
	C500.696350,1005.984314 504.683990,1000.623657 508.070526,994.914612 
	C518.335754,977.609375 528.345886,960.152832 538.441223,942.747070 
	C539.348633,941.182556 540.153748,939.558716 541.173584,937.649475 
	C533.362549,934.056763 525.445190,932.702026 517.278809,933.542480 
	C514.839233,933.793640 511.954895,935.130615 510.478699,936.948303 
	C509.788116,937.798584 511.961823,940.975159 513.372009,944.393250 
	C511.133423,943.395325 508.407715,943.033508 507.847961,941.736755 
	C506.939392,939.631897 506.454559,935.469299 507.543213,934.719421 
	C511.190308,932.207214 515.554871,929.499146 519.753052,929.313416 
	C526.107971,929.032227 532.602722,930.557922 538.943237,931.799805 
	C542.905212,932.575806 545.239624,931.657715 547.607788,928.227356 
	C557.903503,913.313782 568.428467,898.553955 579.131287,883.929382 
	C581.654602,880.481445 584.998291,877.533936 588.354797,874.842896 
	C589.785706,873.695740 592.687805,872.877686 594.068298,873.581970 
	C595.552307,874.339172 596.908142,877.117188 596.786621,878.909485 
	C596.462646,883.688049 595.365784,888.420166 594.486755,893.154175 
	C590.147766,916.522949 585.317688,939.813354 581.607666,963.281067 
	C579.610168,975.916199 579.339661,988.880127 583.485901,1001.381042 
	C585.238037,1006.663513 587.081360,1012.131897 594.684082,1010.189087 
	C595.199219,1010.057434 595.895630,1010.634888 596.588745,1010.915283 
	C599.705688,978.837219 611.164307,948.953247 620.458801,918.513916 
	C623.806458,907.550415 627.312622,896.631958 630.980652,885.772095 
	C631.849548,883.199341 632.390015,879.298462 636.541748,880.487122 
	C637.106567,880.648743 636.992310,885.121643 636.329773,887.340820 
	C626.115112,921.555969 615.619934,955.687988 605.556213,989.946899 
	C603.678406,996.339539 603.399170,1003.201782 602.382202,1009.847351 
	C602.915039,1010.033020 603.447876,1010.218750 603.980713,1010.404480 
	C604.994629,1008.535706 606.130554,1006.721985 607.003967,1004.789734 
	C618.090332,980.261414 628.409058,955.340820 643.376221,932.781677 
	C651.231384,920.942139 659.969299,909.831055 671.215027,900.943298 
	C672.908386,899.604919 674.639404,898.243042 676.540894,897.252869 
	C681.877197,894.474121 686.376038,896.759460 685.971252,902.702271 
	C685.501404,909.598755 684.127808,916.515625 682.386902,923.226685 
	C678.674927,937.535583 674.351440,951.685242 670.561096,965.975037 
	C669.675842,969.312439 669.917603,972.948792 669.640869,976.447571 
	C670.210754,976.672791 670.780640,976.897949 671.350525,977.123108 
	C673.278320,975.013794 675.312256,972.991028 677.115051,970.779785 
	C683.954163,962.391479 690.655457,953.890076 697.550232,945.548340 
	C699.553101,943.125122 701.872437,940.899048 704.319946,938.920654 
	C710.197815,934.169556 716.874084,935.950623 718.749573,943.199585 
	C720.407593,949.607788 720.833740,956.325806 722.023132,962.867126 
	C722.853821,967.436096 723.714294,972.050049 725.165527,976.444458 
	C727.640869,983.939087 733.724854,985.781982 738.752563,979.908447 
	C746.643860,970.689758 754.927368,961.879150 757.456177,948.826904 
	C761.929138,925.740540 770.231567,903.769836 781.106873,882.872131 
	C782.187866,880.794800 784.721558,879.473389 786.580994,877.801147 
	C786.416809,880.391724 787.027283,883.363953 785.968018,885.513489 
	C775.785339,906.179016 767.258301,927.481934 762.910461,950.129089 
	C759.907837,965.768921 755.521606,981.480286 758.994446,997.691833 
	C759.752686,1001.231445 760.941650,1004.741943 762.420532,1008.047363 
	C764.096436,1011.793396 767.204529,1012.415894 769.989197,1009.452026 
	C774.640808,1004.501282 779.752014,999.666199 783.110413,993.877686 
	C792.113708,978.359802 800.288147,962.361145 808.797546,946.556458 
	C811.397217,941.728027 814.015198,936.909363 816.803650,931.767578 
M589.012390,891.457886 
	C589.563721,888.375610 590.115051,885.293274 590.666382,882.210999 
	C573.137390,896.642395 563.004456,915.955933 549.804199,935.010315 
	C558.574158,936.510986 565.690613,937.834961 572.844666,938.908691 
	C576.469360,939.452698 578.532654,938.025635 579.382935,933.989868 
	C582.322021,920.038391 585.673828,906.173889 589.012390,891.457886 
z"/>
<path fill="#F3F3F3" opacity="1.000000" stroke="none" 
	d="
M924.160889,940.675293 
	C919.906860,938.835632 917.742981,940.513550 915.767822,943.915955 
	C904.496704,963.331726 893.180237,982.723999 881.582642,1001.945374 
	C878.251648,1007.466187 874.271729,1012.700562 869.915222,1017.447510 
	C868.090759,1019.435486 864.179016,1021.117737 861.833069,1020.519653 
	C859.875305,1020.020569 857.630432,1016.003357 857.605713,1013.523254 
	C857.552429,1008.183716 858.235596,1002.645691 859.782471,997.541992 
	C861.015930,993.472534 864.211365,993.454468 867.081726,996.711731 
	C861.446716,1002.346375 860.191345,1009.223145 864.146362,1015.408386 
	C865.891846,1013.555115 867.823547,1011.997559 869.133301,1010.026672 
	C874.284302,1002.276123 879.453003,994.522949 884.220581,986.535278 
	C892.827454,972.115173 901.158508,957.530457 909.583130,943.001831 
	C910.563782,941.310669 911.408386,939.540466 912.419312,937.609741 
	C904.731506,934.135803 897.069885,932.770203 889.220459,933.475647 
	C886.497864,933.720215 883.937439,935.769653 881.302979,936.994751 
	C882.317444,939.068481 883.331909,941.142273 885.043396,944.640808 
	C882.409363,943.413269 879.644043,943.002014 879.058472,941.648132 
	C878.156311,939.561707 877.752625,935.451782 878.892090,934.628296 
	C882.347107,932.131409 886.588989,929.489136 890.627258,929.316956 
	C896.991028,929.045532 903.502808,930.424866 909.827942,931.713989 
	C913.983582,932.561035 916.437683,931.756042 918.946228,928.116272 
	C929.229248,913.195312 939.802002,898.470825 950.467773,883.819397 
	C952.696716,880.757507 955.521118,877.975403 958.552429,875.707886 
	C960.416382,874.313538 963.928467,872.895142 965.368591,873.744873 
	C967.037720,874.729736 968.163879,878.291138 967.912476,880.554993 
	C967.236145,886.647034 965.864563,892.681519 964.479004,898.671814 
	C958.400696,924.950562 951.999084,951.227417 952.055298,978.385620 
	C952.073242,987.036804 954.161438,995.759827 956.010742,1004.296570 
	C956.844849,1008.146851 959.166809,1011.755249 964.658264,1010.266846 
	C965.403870,1010.064758 966.892639,1012.604614 968.037231,1013.874878 
	C966.516724,1015.223755 964.300415,1018.020081 963.591980,1017.679565 
	C959.828003,1015.870178 955.128601,1014.040405 953.224304,1010.776123 
	C950.142883,1005.494202 947.511047,999.141113 947.306458,993.150940 
	C946.814209,978.738647 947.654968,964.265137 948.379456,949.837524 
	C948.565796,946.126282 947.835022,945.053467 944.112244,944.586304 
	C937.536133,943.761169 931.062866,942.116394 924.160889,940.675293 
M955.963989,910.395935 
	C958.029297,901.032349 960.094666,891.668762 962.159973,882.305176 
	C961.656616,882.118042 961.153320,881.930847 960.649963,881.743713 
	C944.443298,896.616028 934.342224,915.962036 921.036255,934.864929 
	C929.508911,936.423889 936.282959,937.728638 943.079956,938.900452 
	C947.656067,939.689331 950.095093,937.864624 950.951904,933.054077 
	C952.258301,925.718994 954.166016,918.491028 955.963989,910.395935 
z"/>
<path fill="#F3F3F3" opacity="1.000000" stroke="none" 
	d="
M434.608948,887.603394 
	C439.659515,887.664124 438.033081,890.537231 437.291107,893.038513 
	C433.465149,905.936462 429.567902,918.813782 425.843719,931.741028 
	C424.113251,937.747681 424.543732,938.041809 430.659210,937.490295 
	C440.941681,936.563049 451.227112,935.632385 461.528259,934.964661 
	C466.210449,934.661133 468.705902,933.095581 470.201263,928.107849 
	C476.160706,908.230774 482.679718,888.519226 489.199493,868.815186 
	C490.081879,866.148376 490.884583,861.257019 494.922058,863.074585 
	C498.477905,864.675354 495.266754,868.284729 494.413086,870.934143 
	C488.304382,889.893005 482.089111,908.818115 476.100128,927.814636 
	C474.565247,932.683167 475.553711,933.487000 480.623993,932.596924 
	C483.573212,932.079163 486.513153,931.281494 489.476562,931.181396 
	C490.692871,931.140320 491.960052,932.605042 493.204102,933.384766 
	C492.331207,934.404297 491.619171,936.062195 490.556793,936.329895 
	C486.540863,937.341980 482.435516,938.135559 478.317169,938.565369 
	C474.384644,938.975830 472.622681,940.809509 471.786133,944.692749 
	C466.325592,970.042053 460.666809,995.348877 455.016205,1020.656921 
	C454.366302,1023.567749 453.687805,1026.557007 452.397217,1029.205200 
	C451.718079,1030.598755 449.685303,1031.332520 448.263672,1032.364136 
	C447.802856,1030.676880 446.647339,1028.834351 446.984253,1027.325195 
	C453.208893,999.442810 459.615997,971.601196 465.954651,943.744141 
	C466.130737,942.970337 465.976898,942.121460 465.976898,940.948242 
	C463.420349,940.948242 460.961517,940.773682 458.534607,940.978333 
	C447.920502,941.873657 437.295227,942.712463 426.727814,944.010254 
	C424.989777,944.223694 422.466400,946.389587 422.090057,948.056091 
	C418.208282,965.244080 414.658203,982.507751 411.137146,999.775085 
	C410.821564,1001.322815 411.341400,1003.045288 411.500092,1004.684021 
	C411.627228,1005.996460 412.327057,1007.561218 411.842926,1008.566040 
	C410.511566,1011.329163 408.551453,1016.144104 407.090485,1016.054749 
	C402.442078,1015.770325 403.996002,1011.182800 404.476929,1008.492249 
	C407.955902,989.028381 411.760773,969.622803 415.456635,950.197693 
	C415.640381,949.231812 415.770386,948.255798 416.100677,946.186340 
	C412.844391,946.856262 410.099274,947.703186 407.310028,947.889893 
	C405.614075,948.003418 403.849945,947.097656 402.116455,946.649658 
	C403.282074,945.370605 404.246918,943.761230 405.665741,942.898682 
	C407.327240,941.888672 409.378143,941.005554 411.270660,940.983887 
	C417.351349,940.914246 418.684479,936.875488 420.019623,932.074097 
	C423.754822,918.641846 427.808319,905.297180 431.844147,891.950562 
	C432.298584,890.447693 433.443573,889.153625 434.608948,887.603394 
z"/>
<path fill="#F2F2F2" opacity="1.000000" stroke="none" 
	d="
M329.406433,907.393250 
	C338.203156,892.803345 349.526611,881.319458 364.371674,873.539185 
	C367.443573,871.929199 370.705811,870.580505 374.015656,869.543213 
	C392.972534,863.602661 397.829926,877.828857 395.467072,889.908020 
	C393.240631,901.289612 387.012512,910.768860 380.254333,919.912292 
	C378.176147,922.723938 376.127930,925.586426 373.751282,928.131775 
	C373.013641,928.921753 371.238831,928.743286 369.938904,929.008179 
	C370.195038,927.852844 370.170380,926.527405 370.751038,925.568542 
	C376.249451,916.489258 382.373230,907.739624 387.194519,898.320618 
	C389.486359,893.843201 390.267181,888.095093 390.105896,882.973877 
	C389.854034,874.976624 385.244141,872.359436 377.509247,874.554199 
	C364.598145,878.217712 354.145752,885.762512 345.377533,895.612000 
	C326.664185,916.633118 318.601501,941.965088 316.395660,969.491150 
	C316.147614,972.586365 316.657898,975.846863 317.378387,978.898010 
	C321.435242,996.078247 334.710419,1003.099060 351.558746,997.401123 
	C371.255951,990.739624 386.756744,978.259766 400.290955,962.937988 
	C402.716675,960.191895 405.040924,957.320312 407.747681,954.878906 
	C408.626343,954.086365 410.575775,954.481140 412.035431,954.332886 
	C411.874512,955.663696 412.194550,957.380066 411.482147,958.268860 
	C394.548157,979.395813 375.363342,997.532776 347.970612,1004.110168 
	C330.138641,1008.391907 315.252930,998.250122 312.007294,980.188904 
	C309.138733,964.226379 312.348572,949.003784 317.707031,934.176575 
	C320.971527,925.143616 325.327515,916.505066 329.406433,907.393250 
z"/>
<path fill="#050505" opacity="1.000000" stroke="none" 
	d="
M588.940430,891.867065 
	C585.673828,906.173889 582.322021,920.038391 579.382935,933.989868 
	C578.532654,938.025635 576.469360,939.452698 572.844666,938.908691 
	C565.690613,937.834961 558.574158,936.510986 549.804199,935.010315 
	C563.004456,915.955933 573.137390,896.642395 590.666382,882.210999 
	C590.115051,885.293274 589.563721,888.375610 588.940430,891.867065 
z"/>
<path fill="#050505" opacity="1.000000" stroke="none" 
	d="
M955.891235,910.806763 
	C954.166016,918.491028 952.258301,925.718994 950.951904,933.054077 
	C950.095093,937.864624 947.656067,939.689331 943.079956,938.900452 
	C936.282959,937.728638 929.508911,936.423889 921.036255,934.864929 
	C934.342224,915.962036 944.443298,896.616028 960.649963,881.743713 
	C961.153320,881.930847 961.656616,882.118042 962.159973,882.305176 
	C960.094666,891.668762 958.029297,901.032349 955.891235,910.806763 
z"/>
</svg>